<mxfile host="app.diagrams.net" modified="2024-04-26T13:05:15.578Z" agent="Mozilla/5.0 (Windows NT 10.0; Win64; x64) AppleWebKit/537.36 (KHTML, like Gecko) Chrome/124.0.0.0 Safari/537.36 Edg/124.0.0.0" version="24.3.0" etag="WVkTrozhpDoIbJsrCh8H" type="github">
  <diagram name="PÃ¡gina-1" id="F8jsV4842HRfJ6b3ovkX">
    <mxGraphModel>
      <root>
        <mxCell id="0" />
        <mxCell id="1" parent="0" />
      </root>
    </mxGraphModel>
  </diagram>
</mxfile>
